<?xml version="1.0" encoding="UTF-8"?>
<!DOCTYPE svg PUBLIC "-//W3C//DTD SVG 1.1//EN" "http://www.w3.org/Graphics/SVG/1.1/DTD/svg11.dtd">
<!-- Creator: CorelDRAW 2023 (Not for commercial use) -->
<svg xmlns="http://www.w3.org/2000/svg" xml:space="preserve" width="11.6929in" height="8.26772in" version="1.1" style="shape-rendering:geometricPrecision; text-rendering:geometricPrecision; image-rendering:optimizeQuality; fill-rule:evenodd; clip-rule:evenodd"
viewBox="0 0 11692.91 8267.72"
 xmlns:xlink="http://www.w3.org/1999/xlink"
 xmlns:xodm="http://www.corel.com/coreldraw/odm/2003">
 <defs>
  <style type="text/css">
   <![CDATA[
    .str0 {stroke:none;stroke-width:6.94;stroke-miterlimit:2.61313}
    .fil1 {fill:none}
    .fil0 {fill:none}
    .fil2 {fill:white;fill-rule:nonzero}
   ]]>
  </style>
 </defs>
 <g id="Layer_x0020_1">
  <metadata id="CorelCorpID_0Corel-Layer"/>
  <rect class="fil0 str0" x="-0.21" y="2.81" width="11692.91" height="8267.72"/>
  <rect class="fil1" x="-0.21" y="2.81" width="11692.91" height="8267.72"/>
  <polygon class="fil1" points="2166.33,581.81 9519.34,581.81 9519.34,5780.91 2166.33,5780.91 "/>
  <g id="_2435324407968">
   <path class="fil2" d="M5468.05 3349.93c-245.63,159.79 -665.91,108.49 -665.91,108.49 0,0 221.44,-375.85 467.07,-535.64 245.63,-159.77 542.41,-48.42 542.41,-48.42 0,0 -97.94,315.78 -343.57,475.57z"/>
   <path class="fil2" d="M3846.82 3349.93c245.63,159.79 665.91,108.49 665.91,108.49 0,0 -221.44,-375.85 -467.07,-535.64 -245.63,-159.77 -542.41,-48.42 -542.41,-48.42 0,0 97.95,315.78 343.57,475.57z"/>
   <path class="fil2" d="M4374.53 2752.38c0,-403.3 286.41,-779.16 286.41,-779.16 0,0 286.41,375.86 286.41,779.16 0,403.3 -286.41,681.31 -286.41,681.31 0,0 -286.41,-278.01 -286.41,-681.31z"/>
   <path class="fil2" d="M2248.47 5178c-336.17,0 -647.59,-100.18 -858.48,-289.74 -211.84,-190.39 -308.58,-451.87 -308.58,-756.21 0,-304.32 96.74,-565.82 308.58,-756.19 210.88,-189.56 522.31,-289.74 858.48,-289.74 97.39,0 199.96,8.55 302.67,24.07l67.76 10.23 0 547.59 -95.54 -16.71c-91.22,-15.96 -170.82,-24.41 -244.6,-24.41 -347.76,0 -602.23,188.85 -602.23,505.15 0,316.31 254.47,505.16 602.23,505.16 73.78,0 153.38,-8.44 244.6,-24.4l95.54 -16.71 0 547.57 -67.76 10.25c-102.7,15.52 -205.28,24.07 -302.67,24.07z"/>
   <path class="fil2" d="M3682.34 5145.36l0 -836.99c0,-154.5 -128.97,-175.15 -163.69,-175.15 -37.96,0 -192.22,20.64 -192.22,175.15l0 836.99 -542.28 0 0 -2018.2 542.28 0 0 362.46c0,65.26 -0.81,177.29 -1.97,242.72 68.37,-31.12 221.69,-93.23 366.13,-93.23 334.39,0 534.03,239.88 534.03,641.69l0 864.55 -542.28 0z"/>
   <polygon class="fil2" points="4386.3,3671.67 4928.57,3671.67 4928.57,5145.38 4386.3,5145.38 "/>
   <polygon class="fil2" points="5665.83,5145.36 5094.28,3671.65 5665.66,3671.65 5924.83,4489.14 6183.98,3671.65 6732.44,3671.65 6166.45,5145.36 "/>
   <polygon class="fil2" points="6879.24,3671.67 7421.52,3671.67 7421.52,5145.38 6879.24,5145.38 "/>
   <path class="fil2" d="M7443.76 3202.22c0,162.02 -131.36,293.39 -293.39,293.39 -162.02,0 -293.38,-131.36 -293.38,-293.39 0,-162.02 131.36,-293.38 293.38,-293.38 162.03,0 293.39,131.36 293.39,293.38z"/>
   <path class="fil2" d="M8663.09 3746.93c26.94,-27.09 55.41,-52.19 85.16,-75.27l-461.86 0 0 -320.57 -542.28 0 0 320.57 -157.73 0 0 502.24 157.54 0 -2.5 971.47 542.3 0 2.5 -971.47 140.31 0.33c39.31,-163.07 120,-310.15 236.56,-427.3z"/>
   <path class="fil2" d="M9331.8 4047.05c-202.38,0 -333.17,136.12 -333.17,346.79 0,210.67 130.79,346.78 333.17,346.78 198.23,0 326.32,-136.11 326.32,-346.78 0,-210.67 -128.09,-346.79 -326.32,-346.79zm-38.83 1123.35c-196.68,0 -380.2,-75.59 -516.76,-212.85 -140.31,-141.04 -217.58,-336.04 -217.58,-549.04 0,-213.02 77.27,-408.02 217.58,-549.05 136.56,-137.26 320.08,-212.85 516.76,-212.85 113.66,0 222.87,26.98 312.72,75.19l1.05 -50.14 495.69 0 0 1473.69 -495.69 0 -1.05 -50.14c-89.85,48.21 -199.06,75.19 -312.72,75.19z"/>
   <path class="fil2" d="M10381.65 3418.63l25.61 0c29.9,0 54.09,-9.95 54.09,-34.18 0,-21.32 -15.65,-35.56 -49.8,-35.56 -14.24,0 -24.23,1.41 -29.9,2.83l0 66.92zm-1.45 132.38l-54.09 0 0 -233.44c21.36,-4.28 51.26,-7.11 89.69,-7.11 44.14,0 64.08,7.11 81.16,17.07 12.82,9.95 22.78,28.48 22.78,51.25 0,25.62 -19.95,45.56 -48.43,54.09l0 2.84c22.82,8.53 35.6,25.65 42.73,56.95 7.11,35.57 11.39,49.81 17.07,58.35l-58.34 0c-7.12,-8.54 -11.41,-29.9 -18.53,-56.93 -4.24,-25.61 -18.48,-37.02 -48.38,-37.02l-25.65 0 0 93.95zm-143.75 -122.43c0,103.93 76.87,186.5 182.22,186.5 102.48,0 177.93,-82.57 177.93,-185.09 0,-103.89 -75.46,-187.88 -179.39,-187.88 -103.9,0 -180.76,83.98 -180.76,186.46zm419.94 0c0,132.41 -103.93,236.3 -239.18,236.3 -133.79,0 -240.56,-103.89 -240.56,-236.3 0,-129.54 106.77,-233.43 240.56,-233.43 135.25,0 239.18,103.89 239.18,233.43z"/>
  </g>
 </g>
</svg>
